# xmcd
#
# Track frame offsets: 
#        150
#        18257
#        36012
#        52247
#        71640
#        85450
#        101967
#        118762
#        140232
#        154015
#        167137
#        185092
#
# Disc length: 2724 seconds
#
# Revision: 0
# Processed by: cddbd v1.5.2PL0 Copyright (c) Steve Scherf et al.
# Submitted via: ExactAudioCopy v0.99pb4
#
DISCID=b30aa20c
DTITLE=Craig Horton - In My Spirit
DYEAR=2001
DGENRE=Blues
TTITLE0=Chest Pain Blues
TTITLE1=3 Days and 3 Nights
TTITLE2=One More Time
TTITLE3=Is It True
TTITLE4=Night Club
TTITLE5=That's Her
TTITLE6=Ridin' In My Jaguar
TTITLE7=Spellbound
TTITLE8=Watch Yourself
TTITLE9=Cottonwood Tree
TTITLE10=Try Me Baby
TTITLE11=Midnight Shuffle
EXTD=
EXTT0=
EXTT1=
EXTT2=
EXTT3=
EXTT4=
EXTT5=
EXTT6=
EXTT7=
EXTT8=
EXTT9=
EXTT10=
EXTT11=
PLAYORDER=
